<?xml version="1.0" encoding="utf-8"?>
<!-- Generator: Adobe Illustrator 22.0.0, SVG Export Plug-In . SVG Version: 6.00 Build 0)  -->
<svg version="1.1" id="Layer_1" xmlns="http://www.w3.org/2000/svg" xmlns:xlink="http://www.w3.org/1999/xlink" x="0px" y="0px"
	 viewBox="0 0 612 612" style="enable-background:new 0 0 612 612;" xml:space="preserve">
<style type="text/css">
	.st0{fill:none;stroke:#FFFFFF;stroke-miterlimit:10;}
	.st1{fill:#FFFFFF;}
</style>
<path class="st0" d="M505.4,604H106.7C52.2,604,8,559.9,8,505.3V106.7C8.1,52.2,52.2,8,106.7,8h398.7c54.4,0,98.7,44.1,98.7,98.7
	v398.7C604,559.8,559.9,604,505.4,604z"/>
<path class="st1" d="M415.2,233.4c-16.7,0-32.6,3.2-47,9.1c-0.3-0.4-0.6-0.9-0.9-1.3c-0.6-1-1.2-1.9-1.9-2.7
	c-0.6-0.9-1.2-1.8-1.9-2.7c-0.6-0.9-1.2-1.8-1.9-2.7c-0.6-0.9-1.2-1.8-1.9-2.7c-0.6-0.9-1.2-1.8-1.9-2.7c-0.6-0.9-1.2-1.8-1.9-2.7
	c-0.6-0.9-1.2-1.8-1.9-2.7c-0.6-0.9-1.2-1.8-1.9-2.7c-0.6-0.9-1.2-1.8-1.9-2.7c-0.6-0.9-1.2-1.9-1.9-2.7c-0.6-0.9-1.2-1.8-1.9-2.7
	c-0.6-0.9-1.2-1.8-1.9-2.7c-0.6-0.9-1.2-1.8-1.9-2.7c-0.6-0.9-1.2-1.8-1.9-2.7c-0.6-0.9-1.2-1.8-1.9-2.7c-0.6-0.9-1.2-1.8-1.9-2.7
	c-0.6-0.9-1.2-1.8-1.9-2.7c-0.6-0.9-1.2-1.8-1.9-2.7c-1.1-1.8-2.5-3.5-4.1-4.9c8.8-11.5,14-25.5,14-40.8
	c-0.8-38.3-33.2-69.3-73.2-69.3s-72.4,31-72.4,69.3s32.4,69.3,72.4,69.3c6.8,0,13.4-1,19.6-2.6c0.9,1.9,1.9,3.7,3.2,5.2
	c0.6,1,1.2,1.8,1.9,2.7c0.6,0.9,1.2,1.8,1.9,2.7c0.6,0.9,1.2,1.8,1.9,2.7c0.6,0.9,1.2,1.8,1.9,2.7c0.6,0.9,1.2,1.8,1.9,2.7
	c0.6,1,1.2,1.9,1.9,2.7c0.6,0.9,1.2,1.8,1.9,2.7c0.6,0.9,1.2,1.8,1.9,2.7c0.6,0.9,1.2,1.8,1.9,2.7c0.6,0.9,1.2,1.8,1.9,2.7
	c0.6,0.9,1.2,1.8,1.9,2.7c0.6,0.9,1.2,1.8,1.9,2.7c0.6,0.9,1.2,1.8,1.9,2.7c0.6,0.9,1.2,1.8,1.9,2.7c0.6,0.9,1.2,1.9,1.9,2.7
	c0.6,0.9,1.2,1.9,1.9,2.7c0.6,0.9,1.2,1.8,1.9,2.7c0.6,0.9,1.2,1.8,1.9,2.7c0.3,0.4,0.6,0.8,0.9,1.3c-21,20.8-34,49.1-34,80.3
	c0,8.8,1.1,17.4,3,25.7c-0.2,0.1-0.3,0.1-0.5,0.2c-0.9,0.3-1.9,0.7-2.7,1.2c-0.9,0.3-1.9,0.7-2.7,1.2c-0.9,0.3-1.9,0.7-2.7,1.2
	c-0.9,0.3-1.9,0.7-2.7,1.2c-0.9,0.3-1.8,0.7-2.7,1.2c-0.9,0.3-1.8,0.7-2.7,1.1c-0.9,0.3-1.8,0.7-2.7,1.2c-0.9,0.3-1.9,0.7-2.7,1.2
	c-0.9,0.4-1.8,0.7-2.7,1.2c-1,0.4-1.9,0.7-2.7,1.2c-0.9,0.3-1.8,0.7-2.7,1.2c-0.9,0.3-1.9,0.7-2.7,1.2c-0.9,0.4-1.9,0.7-2.7,1.2
	c-1,0.3-1.9,0.7-2.7,1.2c-0.9,0.3-1.8,0.7-2.7,1.2c-0.9,0.3-1.8,0.7-2.7,1.2c-0.9,0.3-1.8,0.7-2.7,1.2c-0.9,0.3-1.8,0.7-2.7,1.1
	c-1,0.3-1.9,0.7-2.7,1.2c-0.9,0.3-1.9,0.7-2.7,1.2c-0.9,0.4-1.8,0.7-2.7,1.2c-0.9,0.3-1.9,0.7-2.7,1.2c-0.9,0.3-1.9,0.7-2.7,1.2
	c-0.9,0.3-1.9,0.7-2.7,1.2c-0.9,0.3-1.9,0.7-2.7,1.2c-0.9,0.3-1.8,0.7-2.7,1.1c-0.9,0.3-1.8,0.7-2.7,1.2c-0.9,0.3-1.8,0.7-2.7,1.2
	c-0.9,0.3-1.8,0.7-2.7,1.1l0,0c-0.9,0.3-1.8,0.7-2.7,1.1h-0.1c-0.9,0.3-1.8,0.7-2.6,1.1c-0.1,0-0.1,0.1-0.2,0.1
	c-0.9,0.3-1.7,0.7-2.5,1.1c-0.1,0-0.2,0.1-0.3,0.1c-0.8,0.3-1.6,0.7-2.4,1.1c-0.1,0-0.3,0.1-0.4,0.1c-2,0.8-3.9,1.8-5.6,3
	c-13.2-13.1-31.7-21.3-52.2-21.3c-40,0-72.4,31-72.4,69.3s32.4,69.3,72.4,69.3s72.4-31,72.4-69.3c0-2.4-0.1-4.7-0.4-7.1
	c1.1-0.2,2.3-0.5,3.4-1c0.9-0.3,1.7-0.7,2.6-1.1c0,0,0,0,0.1,0c0.9-0.3,1.8-0.7,2.7-1.2c0.9-0.3,1.8-0.7,2.7-1.2
	c0.9-0.4,1.8-0.8,2.7-1.2c1-0.4,1.9-0.8,2.7-1.2c1-0.4,1.8-0.8,2.7-1.2c0.9-0.3,1.9-0.7,2.7-1.2c0.9-0.3,1.8-0.7,2.7-1.2
	c0.9-0.4,1.8-0.7,2.7-1.2c0.9-0.3,1.8-0.7,2.7-1.2c0.9-0.3,1.8-0.7,2.7-1.2c0.9-0.3,1.8-0.7,2.7-1.2c0.9-0.3,1.8-0.7,2.7-1.2
	c0.9-0.4,1.8-0.7,2.7-1.2c0.9-0.3,1.8-0.8,2.7-1.2c0.9-0.4,1.8-0.7,2.7-1.2c1-0.4,1.8-0.8,2.7-1.2c0.9-0.4,1.9-0.8,2.7-1.2
	c0.9-0.3,1.8-0.7,2.7-1.2c0.9-0.3,1.8-0.7,2.7-1.2c0.9-0.3,1.8-0.7,2.7-1.2c0.9-0.3,1.8-0.7,2.7-1.2c0.9-0.3,1.8-0.7,2.7-1.2
	c0.9-0.3,1.8-0.7,2.7-1.2c0.9-0.3,1.8-0.7,2.7-1.2c0.9-0.4,1.9-0.7,2.7-1.2c0.9-0.3,1.9-0.7,2.7-1.2c0.9-0.4,1.9-0.7,2.7-1.2
	c0.9-0.4,1.9-0.7,2.7-1.2c0.9-0.3,1.9-0.7,2.7-1.2c0.9-0.3,1.8-0.7,2.7-1.2c0.9-0.3,1.8-0.7,2.7-1.2c0.9-0.3,1.8-0.7,2.7-1.2
	c0.9-0.3,1.8-0.7,2.7-1.2c0.1,0,0.2-0.1,0.3-0.1c21.9,29.3,57.7,48.5,98.3,48.5c66.7,0,120.7-51.7,120.7-115.5
	C535.9,285.1,481.9,233.4,415.2,233.4z"/>
</svg>
