<svg id="Layer_1" data-name="Layer 1" xmlns="http://www.w3.org/2000/svg" viewBox="0 0 612 612"><defs><style>.cls-1{fill:#2e3338;stroke:#fff;stroke-miterlimit:10;}.cls-2{fill:#fff;}</style></defs><title>Artboard 1</title><path class="cls-1" d="M509.4,611.4H100.7A101.08,101.08,0,0,1-.4,510.3V101.7A101.21,101.21,0,0,1,100.7.6H509.3A101.08,101.08,0,0,1,610.4,101.7V510.3A101.06,101.06,0,0,1,509.4,611.4Z"/><path class="cls-2" d="M414,233.8a123.76,123.76,0,0,0-47,9.1c-.3-.4-.6-.9-.9-1.3a18.48,18.48,0,0,0-1.9-2.7c-.6-.9-1.2-1.8-1.9-2.7s-1.2-1.8-1.9-2.7-1.2-1.8-1.9-2.7-1.2-1.8-1.9-2.7-1.2-1.8-1.9-2.7-1.2-1.8-1.9-2.7-1.2-1.8-1.9-2.7-1.2-1.8-1.9-2.7a26.1,26.1,0,0,0-1.9-2.7c-.6-.9-1.2-1.8-1.9-2.7s-1.2-1.8-1.9-2.7-1.2-1.8-1.9-2.7-1.2-1.8-1.9-2.7-1.2-1.8-1.9-2.7-1.2-1.8-1.9-2.7-1.2-1.8-1.9-2.7-1.2-1.8-1.9-2.7a21.38,21.38,0,0,0-4.1-4.9,66.68,66.68,0,0,0,14-40.8C341,109,308.6,78,268.6,78s-72.4,31-72.4,69.3,32.4,69.3,72.4,69.3a78.56,78.56,0,0,0,19.6-2.6,22.68,22.68,0,0,0,3.2,5.2,26.1,26.1,0,0,0,1.9,2.7c.6.9,1.2,1.8,1.9,2.7s1.2,1.8,1.9,2.7,1.2,1.8,1.9,2.7,1.2,1.8,1.9,2.7a18.48,18.48,0,0,0,1.9,2.7c.6.9,1.2,1.8,1.9,2.7s1.2,1.8,1.9,2.7,1.2,1.8,1.9,2.7,1.2,1.8,1.9,2.7,1.2,1.8,1.9,2.7,1.2,1.8,1.9,2.7,1.2,1.8,1.9,2.7,1.2,1.8,1.9,2.7a26.1,26.1,0,0,0,1.9,2.7,26.1,26.1,0,0,0,1.9,2.7c.6.9,1.2,1.8,1.9,2.7s1.2,1.8,1.9,2.7a14.63,14.63,0,0,1,.9,1.3c-21,20.8-34,49.1-34,80.3a115.09,115.09,0,0,0,3,25.7c-.2.1-.3.1-.5.2a13.07,13.07,0,0,0-2.7,1.2,315121969895697.1,315121969895697.1,0,0,1-5.4,2.4,13.07,13.07,0,0,0-2.7,1.2,16,16,0,0,0-2.7,1.2c-.9.3-1.8.7-2.7,1.1a16,16,0,0,0-2.7,1.2,13.07,13.07,0,0,0-2.7,1.2c-.9.4-1.8.7-2.7,1.2a16.87,16.87,0,0,0-2.7,1.2,16,16,0,0,0-2.7,1.2,13.07,13.07,0,0,0-2.7,1.2,22.07,22.07,0,0,0-2.7,1.2,11.07,11.07,0,0,0-2.7,1.2,16,16,0,0,0-2.7,1.2,16,16,0,0,0-2.7,1.2,16,16,0,0,0-2.7,1.2c-.9.3-1.8.7-2.7,1.1a11.07,11.07,0,0,0-2.7,1.2,13.07,13.07,0,0,0-2.7,1.2c-.9.4-1.8.7-2.7,1.2a13.07,13.07,0,0,0-2.7,1.2,13.07,13.07,0,0,0-2.7,1.2,13.07,13.07,0,0,0-2.7,1.2,13.07,13.07,0,0,0-2.7,1.2c-.9.3-1.8.7-2.7,1.1a16,16,0,0,0-2.7,1.2,16,16,0,0,0-2.7,1.2c-.9.3-1.8.7-2.7,1.1h0c-.9.3-1.8.7-2.7,1.1h-.1a20.29,20.29,0,0,0-2.6,1.1c-.1,0-.1.1-.2.1a18.89,18.89,0,0,0-2.5,1.1c-.1,0-.2.1-.3.1a25.57,25.57,0,0,0-2.4,1.1c-.1,0-.3.1-.4.1a27.31,27.31,0,0,0-5.6,3,73.92,73.92,0,0,0-52.2-21.3c-40,0-72.4,31-72.4,69.3s32.4,69.3,72.4,69.3,72.4-31,72.4-69.3a56.33,56.33,0,0,0-.4-7.1,14.6,14.6,0,0,0,3.4-1c.9-.3,1.7-.7,2.6-1.1h.1a16,16,0,0,0,2.7-1.2,16,16,0,0,0,2.7-1.2l2.7-1.2q1.5-.6,2.7-1.2c1-.4,1.8-.8,2.7-1.2A13.07,13.07,0,0,0,242,449a16,16,0,0,0,2.7-1.2c.9-.4,1.8-.7,2.7-1.2a16,16,0,0,0,2.7-1.2,16,16,0,0,0,2.7-1.2,16,16,0,0,0,2.7-1.2,16,16,0,0,0,2.7-1.2c.9-.4,1.8-.7,2.7-1.2.9-.3,1.8-.8,2.7-1.2s1.8-.7,2.7-1.2,1.8-.8,2.7-1.2,1.9-.8,2.7-1.2a16,16,0,0,0,2.7-1.2,315121969895599.9,315121969895599.9,0,0,1,5.4-2.4,16,16,0,0,0,2.7-1.2,16,16,0,0,0,2.7-1.2,315121969895534.06,315121969895534.06,0,0,0,5.4-2.4,22.07,22.07,0,0,0,2.7-1.2A13.07,13.07,0,0,0,296,425a22.07,22.07,0,0,0,2.7-1.2,22.07,22.07,0,0,0,2.7-1.2,13.07,13.07,0,0,0,2.7-1.2,16,16,0,0,0,2.7-1.2,16,16,0,0,0,2.7-1.2,16,16,0,0,0,2.7-1.2,16,16,0,0,0,2.7-1.2c.1,0,.2-.1.3-.1,21.9,29.3,57.7,48.5,98.3,48.5,66.7,0,120.7-51.7,120.7-115.5C534.7,285.5,480.7,233.8,414,233.8Z"/></svg>